<svg width="81" height="38" viewBox="0 0 81 38" fill="none" xmlns="http://www.w3.org/2000/svg">
<g clip-path="url(#clip0_2423_1481)">
<path d="M16.3097 17.1106C13.9474 15.9855 10.9891 14.5702 9.15871 12.6879C7.5696 11.0391 6.92403 9.42571 6.92403 7.11174C6.92403 3.75755 8.96007 1.1676 11.2232 0C8.44929 0.318436 6.05853 1.1959 4.34882 2.54749C1.84456 4.45103 0.581787 7.09759 0.581787 10.4306C0.581787 13.0347 1.51113 15.2354 3.49751 17.3442C5.21432 19.1486 7.79662 20.5922 10.5279 22.1207L11.3722 22.5948C14.444 24.279 17.0972 25.8146 18.4025 27.5836C19.2255 28.7442 19.566 29.7985 19.566 31.136C19.566 34.1151 17.6931 36.606 14.5929 37.8585C17.7924 37.5118 20.5521 36.4999 22.5243 34.9289C24.7661 33.0891 25.9579 30.6053 25.9579 27.7676C25.965 22.4391 21.9638 19.9907 16.3097 17.1106Z" fill="white"/>
<path d="M0 28.5459C0.0283769 28.7653 0.0567539 28.9917 0.0780366 29.2111C0.432748 32.1478 0.766177 34.9358 1.15636 36.5563C3.66062 37.448 7.61921 37.9858 11.8899 37.9999C9.58431 37.2923 7.2574 35.9336 4.95177 33.9593C3.47617 32.7068 1.56073 30.8599 0 28.5459Z" fill="white"/>
<path d="M76.2631 0.311264C74.7803 0.325417 73.2408 0.33957 71.822 0.33957C71.3963 0.33957 70.9424 0.33957 70.4671 0.332494L48.3542 37.6674L57.6619 37.632L80.2073 0.282959C79.3206 0.290035 77.2491 0.297112 76.2631 0.311264Z" fill="white"/>
<path d="M65.5151 37.6676H77.327L79.0793 27.0247C79.0864 27.0247 73.3188 35.5305 65.5151 37.6676Z" fill="white"/>
<path d="M49.4185 15.5328C56.2857 1.52864 60.2088 0.283203 60.2088 0.283203H47.0703C47.0703 0.283203 52.7882 3.61617 49.4185 15.5328Z" fill="white"/>
<path d="M36.4999 12.8296C31.9454 2.92268 34.9462 0.721937 35.9394 0.283203H20.6159H19.417C23.2124 0.283203 25.2981 5.78153 25.2981 5.78153L34.8398 27.1238C36.3722 30.5134 38.3373 34.8866 39.5504 37.6605V37.6676L44.4099 29.459C43.6934 28.0367 37.1951 14.3722 36.9043 13.7354C36.7766 13.4382 36.6347 13.1339 36.4999 12.8296Z" fill="white"/>
</g>
<defs>
<clipPath id="clip0_2423_1481">
<rect width="81" height="38" fill="white"/>
</clipPath>
</defs>
</svg>
